<<<<<<< HEAD
<mxfile host="drawio-plugin" modified="2023-04-06T13:18:12.975Z" agent="5.0 (Macintosh; Intel Mac OS X 10_15_7) AppleWebKit/537.36 (KHTML, like Gecko) Chrome/104.0.5112.102 Safari/537.36" etag="Q_TAhNh7JzimkdY74jQD" version="20.5.3" type="embed"><diagram name="Page-1" id="532Fav4zeDCam4u463g5"><mxGraphModel dx="6193" dy="3960" grid="1" gridSize="10" guides="1" tooltips="1" connect="1" arrows="1" fold="1" page="1" pageScale="1" pageWidth="827" pageHeight="1169" math="0" shadow="0"><root><mxCell id="0"/><mxCell id="1" parent="0"/><mxCell id="xNTx9IZnhKl4Kcsor4qo-1" value="User" style="shape=umlActor;verticalLabelPosition=bottom;verticalAlign=top;html=1;outlineConnect=0;container=0;" parent="1" vertex="1"><mxGeometry x="820" y="275" width="30" height="60" as="geometry"/></mxCell><mxCell id="QU104gNL1MK60yn12Tqd-1" value="Welcome Page" style="rounded=0;whiteSpace=wrap;html=1;container=0;" parent="1" vertex="1"><mxGeometry x="1010" y="140" width="120" height="60" as="geometry"/></mxCell><mxCell id="QU104gNL1MK60yn12Tqd-4" style="edgeStyle=orthogonalEdgeStyle;rounded=0;orthogonalLoop=1;jettySize=auto;html=1;entryX=0;entryY=0.5;entryDx=0;entryDy=0;" parent="1" source="xNTx9IZnhKl4Kcsor4qo-1" target="QU104gNL1MK60yn12Tqd-1" edge="1"><mxGeometry relative="1" as="geometry"/></mxCell><mxCell id="QU104gNL1MK60yn12Tqd-2" value="Login" style="rounded=0;whiteSpace=wrap;html=1;container=0;" parent="1" vertex="1"><mxGeometry x="1250" y="60" width="120" height="60" as="geometry"/></mxCell><mxCell id="QU104gNL1MK60yn12Tqd-5" style="edgeStyle=orthogonalEdgeStyle;rounded=0;orthogonalLoop=1;jettySize=auto;html=1;entryX=0;entryY=0.5;entryDx=0;entryDy=0;" parent="1" source="QU104gNL1MK60yn12Tqd-1" target="QU104gNL1MK60yn12Tqd-2" edge="1"><mxGeometry relative="1" as="geometry"/></mxCell><mxCell id="QU104gNL1MK60yn12Tqd-11" style="edgeStyle=orthogonalEdgeStyle;rounded=0;orthogonalLoop=1;jettySize=auto;html=1;entryX=0.5;entryY=1;entryDx=0;entryDy=0;dashed=1;" parent="1" source="QU104gNL1MK60yn12Tqd-3" target="QU104gNL1MK60yn12Tqd-2" edge="1"><mxGeometry relative="1" as="geometry"/></mxCell><mxCell id="QU104gNL1MK60yn12Tqd-3" value="Register" style="rounded=0;whiteSpace=wrap;html=1;container=0;" parent="1" vertex="1"><mxGeometry x="1250" y="200" width="120" height="60" as="geometry"/></mxCell><mxCell id="QU104gNL1MK60yn12Tqd-6" style="edgeStyle=orthogonalEdgeStyle;rounded=0;orthogonalLoop=1;jettySize=auto;html=1;" parent="1" source="QU104gNL1MK60yn12Tqd-1" target="QU104gNL1MK60yn12Tqd-3" edge="1"><mxGeometry relative="1" as="geometry"/></mxCell><mxCell id="QU104gNL1MK60yn12Tqd-7" value="My Profile" style="rounded=0;whiteSpace=wrap;html=1;container=0;" parent="1" vertex="1"><mxGeometry x="1010" y="420" width="120" height="60" as="geometry"/></mxCell><mxCell id="QU104gNL1MK60yn12Tqd-12" style="edgeStyle=orthogonalEdgeStyle;rounded=0;orthogonalLoop=1;jettySize=auto;html=1;entryX=0;entryY=0.5;entryDx=0;entryDy=0;" parent="1" source="xNTx9IZnhKl4Kcsor4qo-1" target="QU104gNL1MK60yn12Tqd-7" edge="1"><mxGeometry relative="1" as="geometry"/></mxCell><mxCell id="QU104gNL1MK60yn12Tqd-10" style="edgeStyle=orthogonalEdgeStyle;rounded=0;orthogonalLoop=1;jettySize=auto;html=1;entryX=1;entryY=0.5;entryDx=0;entryDy=0;dashed=1;" parent="1" source="QU104gNL1MK60yn12Tqd-2" target="QU104gNL1MK60yn12Tqd-7" edge="1"><mxGeometry relative="1" as="geometry"><Array as="points"><mxPoint x="1480" y="90"/><mxPoint x="1480" y="450"/></Array></mxGeometry></mxCell><mxCell id="QU104gNL1MK60yn12Tqd-13" value="Admin" style="shape=umlActor;verticalLabelPosition=bottom;verticalAlign=top;html=1;outlineConnect=0;container=0;" parent="1" vertex="1"><mxGeometry x="1720" y="245" width="30" height="60" as="geometry"/></mxCell><mxCell id="QU104gNL1MK60yn12Tqd-14" value="My Profile" style="rounded=0;whiteSpace=wrap;html=1;container=0;" parent="1" vertex="1"><mxGeometry x="1910" y="175" width="120" height="60" as="geometry"/></mxCell><mxCell id="QU104gNL1MK60yn12Tqd-18" style="edgeStyle=orthogonalEdgeStyle;rounded=0;orthogonalLoop=1;jettySize=auto;html=1;entryX=0;entryY=0.5;entryDx=0;entryDy=0;" parent="1" source="QU104gNL1MK60yn12Tqd-13" target="QU104gNL1MK60yn12Tqd-14" edge="1"><mxGeometry relative="1" as="geometry"/></mxCell><mxCell id="QU104gNL1MK60yn12Tqd-15" value="Fields: max 40&lt;br&gt;User: non-space, max 30&lt;br&gt;Email: valid format&lt;br&gt;Password: 1Upper, 1Special, Lower, Digit, max 10&amp;nbsp;&lt;br&gt;Default Role: User" style="text;html=1;strokeColor=none;fillColor=none;align=left;verticalAlign=middle;whiteSpace=wrap;rounded=0;container=0;" parent="1" vertex="1"><mxGeometry x="1165" y="260" width="290" height="90" as="geometry"/></mxCell><mxCell id="QU104gNL1MK60yn12Tqd-16" value="Validate Empty Field" style="text;html=1;strokeColor=none;fillColor=none;align=left;verticalAlign=middle;whiteSpace=wrap;rounded=0;container=0;" parent="1" vertex="1"><mxGeometry x="1165" y="10" width="290" height="30" as="geometry"/></mxCell><mxCell id="QU104gNL1MK60yn12Tqd-17" value="UserManager" style="rounded=0;whiteSpace=wrap;html=1;container=0;" parent="1" vertex="1"><mxGeometry x="1910" y="315" width="120" height="60" as="geometry"/></mxCell><mxCell id="QU104gNL1MK60yn12Tqd-19" style="edgeStyle=orthogonalEdgeStyle;rounded=0;orthogonalLoop=1;jettySize=auto;html=1;entryX=0;entryY=0.5;entryDx=0;entryDy=0;" parent="1" source="QU104gNL1MK60yn12Tqd-13" target="QU104gNL1MK60yn12Tqd-17" edge="1"><mxGeometry relative="1" as="geometry"/></mxCell><mxCell id="QU104gNL1MK60yn12Tqd-20" style="edgeStyle=orthogonalEdgeStyle;rounded=0;orthogonalLoop=1;jettySize=auto;html=1;entryX=0.5;entryY=0;entryDx=0;entryDy=0;dashed=1;" parent="1" source="QU104gNL1MK60yn12Tqd-14" target="QU104gNL1MK60yn12Tqd-17" edge="1"><mxGeometry relative="1" as="geometry"/></mxCell><mxCell id="QU104gNL1MK60yn12Tqd-21" value="Block User" style="whiteSpace=wrap;html=1;rounded=0;container=0;" parent="1" vertex="1"><mxGeometry x="2150" y="215" width="120" height="60" as="geometry"/></mxCell><mxCell id="QU104gNL1MK60yn12Tqd-29" style="edgeStyle=orthogonalEdgeStyle;rounded=0;orthogonalLoop=1;jettySize=auto;html=1;entryX=0;entryY=0.5;entryDx=0;entryDy=0;" parent="1" source="QU104gNL1MK60yn12Tqd-17" target="QU104gNL1MK60yn12Tqd-21" edge="1"><mxGeometry relative="1" as="geometry"/></mxCell><mxCell id="QU104gNL1MK60yn12Tqd-23" value="Change Role" style="whiteSpace=wrap;html=1;rounded=0;container=0;" parent="1" vertex="1"><mxGeometry x="2150" y="425" width="120" height="60" as="geometry"/></mxCell><mxCell id="QU104gNL1MK60yn12Tqd-25" style="edgeStyle=orthogonalEdgeStyle;rounded=0;orthogonalLoop=1;jettySize=auto;html=1;entryX=0;entryY=0.5;entryDx=0;entryDy=0;" parent="1" source="QU104gNL1MK60yn12Tqd-17" target="QU104gNL1MK60yn12Tqd-23" edge="1"><mxGeometry relative="1" as="geometry"/></mxCell><mxCell id="QU104gNL1MK60yn12Tqd-26" value="Delete User&lt;br&gt;Delete PM" style="rounded=0;whiteSpace=wrap;html=1;container=0;" parent="1" vertex="1"><mxGeometry x="2150" y="315" width="120" height="60" as="geometry"/></mxCell><mxCell id="QU104gNL1MK60yn12Tqd-27" value="" style="edgeStyle=orthogonalEdgeStyle;rounded=0;orthogonalLoop=1;jettySize=auto;html=1;" parent="1" source="QU104gNL1MK60yn12Tqd-17" target="QU104gNL1MK60yn12Tqd-26" edge="1"><mxGeometry relative="1" as="geometry"/></mxCell><mxCell id="QU104gNL1MK60yn12Tqd-33" value="PM" style="shape=umlActor;verticalLabelPosition=bottom;verticalAlign=top;html=1;outlineConnect=0;container=0;" parent="1" vertex="1"><mxGeometry x="2500" y="215" width="30" height="60" as="geometry"/></mxCell><mxCell id="QU104gNL1MK60yn12Tqd-35" value="My Profile" style="rounded=0;whiteSpace=wrap;html=1;container=0;" parent="1" vertex="1"><mxGeometry x="2690" y="145" width="120" height="60" as="geometry"/></mxCell><mxCell id="QU104gNL1MK60yn12Tqd-31" style="edgeStyle=orthogonalEdgeStyle;rounded=0;orthogonalLoop=1;jettySize=auto;html=1;entryX=0;entryY=0.5;entryDx=0;entryDy=0;" parent="1" source="QU104gNL1MK60yn12Tqd-33" target="QU104gNL1MK60yn12Tqd-35" edge="1"><mxGeometry relative="1" as="geometry"/></mxCell><mxCell id="QU104gNL1MK60yn12Tqd-39" value="UserManager" style="rounded=0;whiteSpace=wrap;html=1;container=0;" parent="1" vertex="1"><mxGeometry x="2690" y="285" width="120" height="60" as="geometry"/></mxCell><mxCell id="QU104gNL1MK60yn12Tqd-32" style="edgeStyle=orthogonalEdgeStyle;rounded=0;orthogonalLoop=1;jettySize=auto;html=1;entryX=0;entryY=0.5;entryDx=0;entryDy=0;" parent="1" source="QU104gNL1MK60yn12Tqd-33" target="QU104gNL1MK60yn12Tqd-39" edge="1"><mxGeometry relative="1" as="geometry"/></mxCell><mxCell id="QU104gNL1MK60yn12Tqd-34" style="edgeStyle=orthogonalEdgeStyle;rounded=0;orthogonalLoop=1;jettySize=auto;html=1;entryX=0.5;entryY=0;entryDx=0;entryDy=0;dashed=1;" parent="1" source="QU104gNL1MK60yn12Tqd-35" target="QU104gNL1MK60yn12Tqd-39" edge="1"><mxGeometry relative="1" as="geometry"/></mxCell><mxCell id="QU104gNL1MK60yn12Tqd-40" value="Block User" style="whiteSpace=wrap;html=1;rounded=0;container=0;" parent="1" vertex="1"><mxGeometry x="2930" y="185" width="120" height="60" as="geometry"/></mxCell><mxCell id="QU104gNL1MK60yn12Tqd-38" style="edgeStyle=orthogonalEdgeStyle;rounded=0;orthogonalLoop=1;jettySize=auto;html=1;entryX=0;entryY=0.5;entryDx=0;entryDy=0;" parent="1" source="QU104gNL1MK60yn12Tqd-39" target="QU104gNL1MK60yn12Tqd-40" edge="1"><mxGeometry relative="1" as="geometry"/></mxCell><mxCell id="QU104gNL1MK60yn12Tqd-42" value="Delete User" style="rounded=0;whiteSpace=wrap;html=1;container=0;" parent="1" vertex="1"><mxGeometry x="2930" y="285" width="120" height="60" as="geometry"/></mxCell><mxCell id="QU104gNL1MK60yn12Tqd-37" value="" style="edgeStyle=orthogonalEdgeStyle;rounded=0;orthogonalLoop=1;jettySize=auto;html=1;" parent="1" source="QU104gNL1MK60yn12Tqd-39" target="QU104gNL1MK60yn12Tqd-42" edge="1"><mxGeometry relative="1" as="geometry"/></mxCell><mxCell id="QU104gNL1MK60yn12Tqd-43" value="Status:&amp;nbsp;&lt;br&gt;True = Block&lt;br&gt;False = Unblock" style="text;strokeColor=none;fillColor=none;align=left;verticalAlign=middle;spacingLeft=4;spacingRight=4;overflow=hidden;points=[[0,0.5],[1,0.5]];portConstraint=eastwest;rotatable=0;whiteSpace=wrap;html=1;container=0;" parent="1" vertex="1"><mxGeometry x="2150" y="140" width="120" height="60" as="geometry"/></mxCell><mxCell id="QU104gNL1MK60yn12Tqd-47" value="POST" style="rounded=0;whiteSpace=wrap;html=1;container=0;" parent="1" vertex="1"><mxGeometry x="1010" y="620" width="120" height="60" as="geometry"/></mxCell><mxCell id="QU104gNL1MK60yn12Tqd-46" style="edgeStyle=orthogonalEdgeStyle;rounded=0;orthogonalLoop=1;jettySize=auto;html=1;entryX=0;entryY=0.5;entryDx=0;entryDy=0;" parent="1" source="xNTx9IZnhKl4Kcsor4qo-1" target="QU104gNL1MK60yn12Tqd-47" edge="1"><mxGeometry relative="1" as="geometry"><mxPoint x="1009.9999999999998" y="610" as="targetPoint"/></mxGeometry></mxCell><mxCell id="QU104gNL1MK60yn12Tqd-48" value="Private" style="rounded=0;whiteSpace=wrap;html=1;container=0;" parent="1" vertex="1"><mxGeometry x="1450" y="495" width="120" height="60" as="geometry"/></mxCell><mxCell id="QU104gNL1MK60yn12Tqd-51" value="Public" style="rounded=0;whiteSpace=wrap;html=1;container=0;" parent="1" vertex="1"><mxGeometry x="1450" y="620" width="120" height="60" as="geometry"/></mxCell><mxCell id="QU104gNL1MK60yn12Tqd-52" value="Friend" style="rounded=0;whiteSpace=wrap;html=1;container=0;" parent="1" vertex="1"><mxGeometry x="1450" y="745" width="120" height="60" as="geometry"/></mxCell><mxCell id="QU104gNL1MK60yn12Tqd-56" value="Status" style="rounded=0;whiteSpace=wrap;html=1;container=0;" parent="1" vertex="1"><mxGeometry x="1210" y="620" width="120" height="60" as="geometry"/></mxCell><mxCell id="QU104gNL1MK60yn12Tqd-57" value="" style="edgeStyle=orthogonalEdgeStyle;rounded=0;orthogonalLoop=1;jettySize=auto;html=1;" parent="1" source="QU104gNL1MK60yn12Tqd-47" target="QU104gNL1MK60yn12Tqd-56" edge="1"><mxGeometry relative="1" as="geometry"/></mxCell><mxCell id="QU104gNL1MK60yn12Tqd-54" style="edgeStyle=orthogonalEdgeStyle;rounded=0;orthogonalLoop=1;jettySize=auto;html=1;entryX=0;entryY=0.5;entryDx=0;entryDy=0;exitX=1;exitY=0.5;exitDx=0;exitDy=0;" parent="1" source="QU104gNL1MK60yn12Tqd-56" target="QU104gNL1MK60yn12Tqd-48" edge="1"><mxGeometry relative="1" as="geometry"/></mxCell><mxCell id="QU104gNL1MK60yn12Tqd-53" style="edgeStyle=orthogonalEdgeStyle;rounded=0;orthogonalLoop=1;jettySize=auto;html=1;entryX=0;entryY=0.5;entryDx=0;entryDy=0;exitX=1;exitY=0.5;exitDx=0;exitDy=0;" parent="1" source="QU104gNL1MK60yn12Tqd-56" target="QU104gNL1MK60yn12Tqd-51" edge="1"><mxGeometry relative="1" as="geometry"/></mxCell><mxCell id="QU104gNL1MK60yn12Tqd-55" style="edgeStyle=orthogonalEdgeStyle;rounded=0;orthogonalLoop=1;jettySize=auto;html=1;entryX=0;entryY=0.5;entryDx=0;entryDy=0;exitX=1;exitY=0.5;exitDx=0;exitDy=0;" parent="1" source="QU104gNL1MK60yn12Tqd-56" target="QU104gNL1MK60yn12Tqd-52" edge="1"><mxGeometry relative="1" as="geometry"/></mxCell><mxCell id="QU104gNL1MK60yn12Tqd-63" value="CRUD for POST" style="rounded=0;whiteSpace=wrap;html=1;container=0;" parent="1" vertex="1"><mxGeometry x="1010" y="760" width="120" height="60" as="geometry"/></mxCell><mxCell id="QU104gNL1MK60yn12Tqd-64" value="" style="edgeStyle=orthogonalEdgeStyle;rounded=0;orthogonalLoop=1;jettySize=auto;html=1;" parent="1" source="QU104gNL1MK60yn12Tqd-47" target="QU104gNL1MK60yn12Tqd-63" edge="1"><mxGeometry relative="1" as="geometry"/></mxCell><mxCell id="QU104gNL1MK60yn12Tqd-86" style="edgeStyle=orthogonalEdgeStyle;rounded=0;orthogonalLoop=1;jettySize=auto;html=1;entryX=1;entryY=0.5;entryDx=0;entryDy=0;dashed=1;" parent="1" source="QU104gNL1MK60yn12Tqd-66" target="QU104gNL1MK60yn12Tqd-51" edge="1"><mxGeometry relative="1" as="geometry"><Array as="points"><mxPoint x="1700" y="910"/><mxPoint x="1700" y="650"/></Array></mxGeometry></mxCell><mxCell id="QU104gNL1MK60yn12Tqd-66" value="Comment" style="rounded=0;whiteSpace=wrap;html=1;container=0;" parent="1" vertex="1"><mxGeometry x="1010" y="880" width="120" height="60" as="geometry"/></mxCell><mxCell id="QU104gNL1MK60yn12Tqd-67" style="edgeStyle=orthogonalEdgeStyle;rounded=0;orthogonalLoop=1;jettySize=auto;html=1;entryX=0;entryY=0.5;entryDx=0;entryDy=0;" parent="1" source="xNTx9IZnhKl4Kcsor4qo-1" target="QU104gNL1MK60yn12Tqd-66" edge="1"><mxGeometry relative="1" as="geometry"/></mxCell><mxCell id="QU104gNL1MK60yn12Tqd-70" value="Add Friend Request" style="rounded=0;whiteSpace=wrap;html=1;container=0;" parent="1" vertex="1"><mxGeometry x="1010" y="1160" width="120" height="60" as="geometry"/></mxCell><mxCell id="QU104gNL1MK60yn12Tqd-71" style="edgeStyle=orthogonalEdgeStyle;rounded=0;orthogonalLoop=1;jettySize=auto;html=1;entryX=0;entryY=0.5;entryDx=0;entryDy=0;" parent="1" source="xNTx9IZnhKl4Kcsor4qo-1" target="QU104gNL1MK60yn12Tqd-70" edge="1"><mxGeometry relative="1" as="geometry"/></mxCell><mxCell id="QU104gNL1MK60yn12Tqd-72" value="Find Friend" style="rounded=0;whiteSpace=wrap;html=1;container=0;" parent="1" vertex="1"><mxGeometry x="1250" y="1160" width="120" height="60" as="geometry"/></mxCell><mxCell id="QU104gNL1MK60yn12Tqd-79" style="edgeStyle=orthogonalEdgeStyle;rounded=0;orthogonalLoop=1;jettySize=auto;html=1;entryX=0;entryY=0.5;entryDx=0;entryDy=0;" parent="1" source="QU104gNL1MK60yn12Tqd-70" target="QU104gNL1MK60yn12Tqd-72" edge="1"><mxGeometry relative="1" as="geometry"/></mxCell><mxCell id="QU104gNL1MK60yn12Tqd-75" value="Friend Status&lt;br&gt;(Friend/Un-Friend)" style="rounded=0;whiteSpace=wrap;html=1;container=0;" parent="1" vertex="1"><mxGeometry x="1490" y="1160" width="120" height="60" as="geometry"/></mxCell><mxCell id="QU104gNL1MK60yn12Tqd-77" style="edgeStyle=orthogonalEdgeStyle;rounded=0;orthogonalLoop=1;jettySize=auto;html=1;entryX=0;entryY=0.5;entryDx=0;entryDy=0;" parent="1" source="QU104gNL1MK60yn12Tqd-72" target="QU104gNL1MK60yn12Tqd-75" edge="1"><mxGeometry relative="1" as="geometry"/></mxCell><mxCell id="QU104gNL1MK60yn12Tqd-76" value="Choose ID" style="rounded=0;whiteSpace=wrap;html=1;container=0;" parent="1" vertex="1"><mxGeometry x="1730" y="1160" width="120" height="60" as="geometry"/></mxCell><mxCell id="QU104gNL1MK60yn12Tqd-78" style="edgeStyle=orthogonalEdgeStyle;rounded=0;orthogonalLoop=1;jettySize=auto;html=1;entryX=0;entryY=0.5;entryDx=0;entryDy=0;" parent="1" source="QU104gNL1MK60yn12Tqd-75" target="QU104gNL1MK60yn12Tqd-76" edge="1"><mxGeometry relative="1" as="geometry"/></mxCell><mxCell id="QU104gNL1MK60yn12Tqd-80" value="Alert Confirm&lt;br&gt;(Yes/No)" style="rounded=0;whiteSpace=wrap;html=1;container=0;" parent="1" vertex="1"><mxGeometry x="1970" y="1160" width="120" height="60" as="geometry"/></mxCell><mxCell id="QU104gNL1MK60yn12Tqd-81" style="edgeStyle=orthogonalEdgeStyle;rounded=0;orthogonalLoop=1;jettySize=auto;html=1;entryX=0;entryY=0.5;entryDx=0;entryDy=0;" parent="1" source="QU104gNL1MK60yn12Tqd-76" target="QU104gNL1MK60yn12Tqd-80" edge="1"><mxGeometry relative="1" as="geometry"/></mxCell><mxCell id="QU104gNL1MK60yn12Tqd-84" style="edgeStyle=orthogonalEdgeStyle;rounded=0;orthogonalLoop=1;jettySize=auto;html=1;entryX=1;entryY=0.5;entryDx=0;entryDy=0;dashed=1;" parent="1" source="QU104gNL1MK60yn12Tqd-82" target="QU104gNL1MK60yn12Tqd-52" edge="1"><mxGeometry relative="1" as="geometry"><Array as="points"><mxPoint x="1700" y="1030"/><mxPoint x="1700" y="775"/></Array></mxGeometry></mxCell><mxCell id="QU104gNL1MK60yn12Tqd-85" style="edgeStyle=orthogonalEdgeStyle;rounded=0;orthogonalLoop=1;jettySize=auto;html=1;entryX=1;entryY=0.5;entryDx=0;entryDy=0;dashed=1;" parent="1" source="QU104gNL1MK60yn12Tqd-82" target="QU104gNL1MK60yn12Tqd-51" edge="1"><mxGeometry relative="1" as="geometry"><Array as="points"><mxPoint x="1700" y="1030"/><mxPoint x="1700" y="650"/></Array></mxGeometry></mxCell><mxCell id="QU104gNL1MK60yn12Tqd-82" value="Like" style="rounded=0;whiteSpace=wrap;html=1;container=0;" parent="1" vertex="1"><mxGeometry x="1010" y="1000" width="120" height="60" as="geometry"/></mxCell><mxCell id="QU104gNL1MK60yn12Tqd-83" style="edgeStyle=orthogonalEdgeStyle;rounded=0;orthogonalLoop=1;jettySize=auto;html=1;entryX=0;entryY=0.5;entryDx=0;entryDy=0;" parent="1" source="xNTx9IZnhKl4Kcsor4qo-1" target="QU104gNL1MK60yn12Tqd-82" edge="1"><mxGeometry relative="1" as="geometry"/></mxCell><mxCell id="QU104gNL1MK60yn12Tqd-87" value="Chat" style="rounded=0;whiteSpace=wrap;html=1;container=0;" parent="1" vertex="1"><mxGeometry x="1010" y="1440" width="120" height="60" as="geometry"/></mxCell><mxCell id="QU104gNL1MK60yn12Tqd-88" style="edgeStyle=orthogonalEdgeStyle;rounded=0;orthogonalLoop=1;jettySize=auto;html=1;entryX=0;entryY=0.5;entryDx=0;entryDy=0;" parent="1" source="xNTx9IZnhKl4Kcsor4qo-1" target="QU104gNL1MK60yn12Tqd-87" edge="1"><mxGeometry relative="1" as="geometry"/></mxCell><mxCell id="QU104gNL1MK60yn12Tqd-89" value="View Sent" style="rounded=0;whiteSpace=wrap;html=1;container=0;" parent="1" vertex="1"><mxGeometry x="1250" y="1350" width="120" height="60" as="geometry"/></mxCell><mxCell id="QU104gNL1MK60yn12Tqd-91" style="edgeStyle=orthogonalEdgeStyle;rounded=0;orthogonalLoop=1;jettySize=auto;html=1;entryX=0;entryY=0.5;entryDx=0;entryDy=0;" parent="1" source="QU104gNL1MK60yn12Tqd-87" target="QU104gNL1MK60yn12Tqd-89" edge="1"><mxGeometry relative="1" as="geometry"/></mxCell><mxCell id="QU104gNL1MK60yn12Tqd-90" value="View Recived" style="rounded=0;whiteSpace=wrap;html=1;container=0;" parent="1" vertex="1"><mxGeometry x="1250" y="1520" width="120" height="60" as="geometry"/></mxCell><mxCell id="QU104gNL1MK60yn12Tqd-92" style="edgeStyle=orthogonalEdgeStyle;rounded=0;orthogonalLoop=1;jettySize=auto;html=1;entryX=0;entryY=0.5;entryDx=0;entryDy=0;" parent="1" source="QU104gNL1MK60yn12Tqd-87" target="QU104gNL1MK60yn12Tqd-90" edge="1"><mxGeometry relative="1" as="geometry"/></mxCell></root></mxGraphModel></diagram></mxfile>
=======
<mxfile host="app.diagrams.net" modified="2023-04-05T04:22:50.004Z" agent="Mozilla/5.0 (Macintosh; Intel Mac OS X 10_15_7) AppleWebKit/537.36 (KHTML, like Gecko) Chrome/111.0.0.0 Safari/537.36 Edg/111.0.1661.62" etag="Ws6IzEkmHq9meZN9aZgy" version="21.1.2" type="github">
  <diagram name="Page-1" id="532Fav4zeDCam4u463g5">
    <mxGraphModel dx="1008" dy="753" grid="1" gridSize="10" guides="1" tooltips="1" connect="1" arrows="1" fold="1" page="1" pageScale="1" pageWidth="827" pageHeight="1169" math="0" shadow="0">
      <root>
        <mxCell id="0" />
        <mxCell id="1" parent="0" />
        <mxCell id="QU104gNL1MK60yn12Tqd-4" style="edgeStyle=orthogonalEdgeStyle;rounded=0;orthogonalLoop=1;jettySize=auto;html=1;entryX=0;entryY=0.5;entryDx=0;entryDy=0;" edge="1" parent="1" source="xNTx9IZnhKl4Kcsor4qo-1" target="QU104gNL1MK60yn12Tqd-1">
          <mxGeometry relative="1" as="geometry" />
        </mxCell>
        <mxCell id="QU104gNL1MK60yn12Tqd-12" style="edgeStyle=orthogonalEdgeStyle;rounded=0;orthogonalLoop=1;jettySize=auto;html=1;entryX=0;entryY=0.5;entryDx=0;entryDy=0;" edge="1" parent="1" source="xNTx9IZnhKl4Kcsor4qo-1" target="QU104gNL1MK60yn12Tqd-7">
          <mxGeometry relative="1" as="geometry" />
        </mxCell>
        <mxCell id="QU104gNL1MK60yn12Tqd-46" style="edgeStyle=orthogonalEdgeStyle;rounded=0;orthogonalLoop=1;jettySize=auto;html=1;entryX=0;entryY=0.5;entryDx=0;entryDy=0;" edge="1" parent="1" source="xNTx9IZnhKl4Kcsor4qo-1" target="QU104gNL1MK60yn12Tqd-47">
          <mxGeometry relative="1" as="geometry">
            <mxPoint x="239.99999999999977" y="610" as="targetPoint" />
          </mxGeometry>
        </mxCell>
        <mxCell id="QU104gNL1MK60yn12Tqd-67" style="edgeStyle=orthogonalEdgeStyle;rounded=0;orthogonalLoop=1;jettySize=auto;html=1;entryX=0;entryY=0.5;entryDx=0;entryDy=0;" edge="1" parent="1" source="xNTx9IZnhKl4Kcsor4qo-1" target="QU104gNL1MK60yn12Tqd-66">
          <mxGeometry relative="1" as="geometry" />
        </mxCell>
        <mxCell id="QU104gNL1MK60yn12Tqd-71" style="edgeStyle=orthogonalEdgeStyle;rounded=0;orthogonalLoop=1;jettySize=auto;html=1;entryX=0;entryY=0.5;entryDx=0;entryDy=0;" edge="1" parent="1" source="xNTx9IZnhKl4Kcsor4qo-1" target="QU104gNL1MK60yn12Tqd-70">
          <mxGeometry relative="1" as="geometry" />
        </mxCell>
        <mxCell id="xNTx9IZnhKl4Kcsor4qo-1" value="User" style="shape=umlActor;verticalLabelPosition=bottom;verticalAlign=top;html=1;outlineConnect=0;" parent="1" vertex="1">
          <mxGeometry x="50" y="275" width="30" height="60" as="geometry" />
        </mxCell>
        <mxCell id="QU104gNL1MK60yn12Tqd-5" style="edgeStyle=orthogonalEdgeStyle;rounded=0;orthogonalLoop=1;jettySize=auto;html=1;entryX=0;entryY=0.5;entryDx=0;entryDy=0;" edge="1" parent="1" source="QU104gNL1MK60yn12Tqd-1" target="QU104gNL1MK60yn12Tqd-2">
          <mxGeometry relative="1" as="geometry" />
        </mxCell>
        <mxCell id="QU104gNL1MK60yn12Tqd-6" style="edgeStyle=orthogonalEdgeStyle;rounded=0;orthogonalLoop=1;jettySize=auto;html=1;" edge="1" parent="1" source="QU104gNL1MK60yn12Tqd-1" target="QU104gNL1MK60yn12Tqd-3">
          <mxGeometry relative="1" as="geometry" />
        </mxCell>
        <mxCell id="QU104gNL1MK60yn12Tqd-1" value="Welcome Page" style="rounded=0;whiteSpace=wrap;html=1;" vertex="1" parent="1">
          <mxGeometry x="240" y="140" width="120" height="60" as="geometry" />
        </mxCell>
        <mxCell id="QU104gNL1MK60yn12Tqd-10" style="edgeStyle=orthogonalEdgeStyle;rounded=0;orthogonalLoop=1;jettySize=auto;html=1;entryX=1;entryY=0.5;entryDx=0;entryDy=0;dashed=1;strokeColor=#FF0000;" edge="1" parent="1" source="QU104gNL1MK60yn12Tqd-2" target="QU104gNL1MK60yn12Tqd-7">
          <mxGeometry relative="1" as="geometry">
            <Array as="points">
              <mxPoint x="710" y="90" />
              <mxPoint x="710" y="450" />
            </Array>
          </mxGeometry>
        </mxCell>
        <mxCell id="QU104gNL1MK60yn12Tqd-2" value="Login" style="rounded=0;whiteSpace=wrap;html=1;" vertex="1" parent="1">
          <mxGeometry x="480" y="60" width="120" height="60" as="geometry" />
        </mxCell>
        <mxCell id="QU104gNL1MK60yn12Tqd-11" style="edgeStyle=orthogonalEdgeStyle;rounded=0;orthogonalLoop=1;jettySize=auto;html=1;entryX=0.5;entryY=1;entryDx=0;entryDy=0;dashed=1;strokeColor=#FF0000;" edge="1" parent="1" source="QU104gNL1MK60yn12Tqd-3" target="QU104gNL1MK60yn12Tqd-2">
          <mxGeometry relative="1" as="geometry" />
        </mxCell>
        <mxCell id="QU104gNL1MK60yn12Tqd-3" value="Register" style="rounded=0;whiteSpace=wrap;html=1;" vertex="1" parent="1">
          <mxGeometry x="480" y="200" width="120" height="60" as="geometry" />
        </mxCell>
        <mxCell id="QU104gNL1MK60yn12Tqd-7" value="My Profile" style="rounded=0;whiteSpace=wrap;html=1;" vertex="1" parent="1">
          <mxGeometry x="240" y="420" width="120" height="60" as="geometry" />
        </mxCell>
        <mxCell id="QU104gNL1MK60yn12Tqd-18" style="edgeStyle=orthogonalEdgeStyle;rounded=0;orthogonalLoop=1;jettySize=auto;html=1;entryX=0;entryY=0.5;entryDx=0;entryDy=0;" edge="1" parent="1" source="QU104gNL1MK60yn12Tqd-13" target="QU104gNL1MK60yn12Tqd-14">
          <mxGeometry relative="1" as="geometry" />
        </mxCell>
        <mxCell id="QU104gNL1MK60yn12Tqd-19" style="edgeStyle=orthogonalEdgeStyle;rounded=0;orthogonalLoop=1;jettySize=auto;html=1;entryX=0;entryY=0.5;entryDx=0;entryDy=0;" edge="1" parent="1" source="QU104gNL1MK60yn12Tqd-13" target="QU104gNL1MK60yn12Tqd-17">
          <mxGeometry relative="1" as="geometry" />
        </mxCell>
        <mxCell id="QU104gNL1MK60yn12Tqd-13" value="Admin" style="shape=umlActor;verticalLabelPosition=bottom;verticalAlign=top;html=1;outlineConnect=0;" vertex="1" parent="1">
          <mxGeometry x="950" y="245" width="30" height="60" as="geometry" />
        </mxCell>
        <mxCell id="QU104gNL1MK60yn12Tqd-20" style="edgeStyle=orthogonalEdgeStyle;rounded=0;orthogonalLoop=1;jettySize=auto;html=1;entryX=0.5;entryY=0;entryDx=0;entryDy=0;dashed=1;strokeColor=#FF0000;" edge="1" parent="1" source="QU104gNL1MK60yn12Tqd-14" target="QU104gNL1MK60yn12Tqd-17">
          <mxGeometry relative="1" as="geometry" />
        </mxCell>
        <mxCell id="QU104gNL1MK60yn12Tqd-14" value="My Profile" style="rounded=0;whiteSpace=wrap;html=1;" vertex="1" parent="1">
          <mxGeometry x="1140" y="175" width="120" height="60" as="geometry" />
        </mxCell>
        <mxCell id="QU104gNL1MK60yn12Tqd-15" value="Fields: max 40&lt;br&gt;User: non-space, max 30&lt;br&gt;Email: valid format&lt;br&gt;Password: 1Upper, 1Special, Lower, Digit, max 10&amp;nbsp;&lt;br&gt;Default Role: User" style="text;html=1;strokeColor=none;fillColor=none;align=left;verticalAlign=middle;whiteSpace=wrap;rounded=0;" vertex="1" parent="1">
          <mxGeometry x="395" y="260" width="290" height="90" as="geometry" />
        </mxCell>
        <mxCell id="QU104gNL1MK60yn12Tqd-16" value="Validate Empty Field" style="text;html=1;strokeColor=none;fillColor=none;align=left;verticalAlign=middle;whiteSpace=wrap;rounded=0;" vertex="1" parent="1">
          <mxGeometry x="395" y="10" width="290" height="30" as="geometry" />
        </mxCell>
        <mxCell id="QU104gNL1MK60yn12Tqd-25" style="edgeStyle=orthogonalEdgeStyle;rounded=0;orthogonalLoop=1;jettySize=auto;html=1;entryX=0;entryY=0.5;entryDx=0;entryDy=0;" edge="1" parent="1" source="QU104gNL1MK60yn12Tqd-17" target="QU104gNL1MK60yn12Tqd-23">
          <mxGeometry relative="1" as="geometry" />
        </mxCell>
        <mxCell id="QU104gNL1MK60yn12Tqd-27" value="" style="edgeStyle=orthogonalEdgeStyle;rounded=0;orthogonalLoop=1;jettySize=auto;html=1;" edge="1" parent="1" source="QU104gNL1MK60yn12Tqd-17" target="QU104gNL1MK60yn12Tqd-26">
          <mxGeometry relative="1" as="geometry" />
        </mxCell>
        <mxCell id="QU104gNL1MK60yn12Tqd-29" style="edgeStyle=orthogonalEdgeStyle;rounded=0;orthogonalLoop=1;jettySize=auto;html=1;entryX=0;entryY=0.5;entryDx=0;entryDy=0;" edge="1" parent="1" source="QU104gNL1MK60yn12Tqd-17" target="QU104gNL1MK60yn12Tqd-21">
          <mxGeometry relative="1" as="geometry" />
        </mxCell>
        <mxCell id="QU104gNL1MK60yn12Tqd-17" value="UserManager" style="rounded=0;whiteSpace=wrap;html=1;" vertex="1" parent="1">
          <mxGeometry x="1140" y="315" width="120" height="60" as="geometry" />
        </mxCell>
        <mxCell id="QU104gNL1MK60yn12Tqd-21" value="Block User" style="whiteSpace=wrap;html=1;rounded=0;" vertex="1" parent="1">
          <mxGeometry x="1380" y="215" width="120" height="60" as="geometry" />
        </mxCell>
        <mxCell id="QU104gNL1MK60yn12Tqd-23" value="Change Role" style="whiteSpace=wrap;html=1;rounded=0;" vertex="1" parent="1">
          <mxGeometry x="1380" y="425" width="120" height="60" as="geometry" />
        </mxCell>
        <mxCell id="QU104gNL1MK60yn12Tqd-26" value="Delete User&lt;br&gt;Delete PM" style="rounded=0;whiteSpace=wrap;html=1;" vertex="1" parent="1">
          <mxGeometry x="1380" y="315" width="120" height="60" as="geometry" />
        </mxCell>
        <mxCell id="QU104gNL1MK60yn12Tqd-31" style="edgeStyle=orthogonalEdgeStyle;rounded=0;orthogonalLoop=1;jettySize=auto;html=1;entryX=0;entryY=0.5;entryDx=0;entryDy=0;" edge="1" parent="1" source="QU104gNL1MK60yn12Tqd-33" target="QU104gNL1MK60yn12Tqd-35">
          <mxGeometry relative="1" as="geometry" />
        </mxCell>
        <mxCell id="QU104gNL1MK60yn12Tqd-32" style="edgeStyle=orthogonalEdgeStyle;rounded=0;orthogonalLoop=1;jettySize=auto;html=1;entryX=0;entryY=0.5;entryDx=0;entryDy=0;" edge="1" parent="1" source="QU104gNL1MK60yn12Tqd-33" target="QU104gNL1MK60yn12Tqd-39">
          <mxGeometry relative="1" as="geometry" />
        </mxCell>
        <mxCell id="QU104gNL1MK60yn12Tqd-33" value="PM" style="shape=umlActor;verticalLabelPosition=bottom;verticalAlign=top;html=1;outlineConnect=0;" vertex="1" parent="1">
          <mxGeometry x="1680" y="220" width="30" height="60" as="geometry" />
        </mxCell>
        <mxCell id="QU104gNL1MK60yn12Tqd-34" style="edgeStyle=orthogonalEdgeStyle;rounded=0;orthogonalLoop=1;jettySize=auto;html=1;entryX=0.5;entryY=0;entryDx=0;entryDy=0;dashed=1;strokeColor=#FF0000;" edge="1" parent="1" source="QU104gNL1MK60yn12Tqd-35" target="QU104gNL1MK60yn12Tqd-39">
          <mxGeometry relative="1" as="geometry" />
        </mxCell>
        <mxCell id="QU104gNL1MK60yn12Tqd-35" value="My Profile" style="rounded=0;whiteSpace=wrap;html=1;" vertex="1" parent="1">
          <mxGeometry x="1870" y="150" width="120" height="60" as="geometry" />
        </mxCell>
        <mxCell id="QU104gNL1MK60yn12Tqd-37" value="" style="edgeStyle=orthogonalEdgeStyle;rounded=0;orthogonalLoop=1;jettySize=auto;html=1;" edge="1" parent="1" source="QU104gNL1MK60yn12Tqd-39" target="QU104gNL1MK60yn12Tqd-42">
          <mxGeometry relative="1" as="geometry" />
        </mxCell>
        <mxCell id="QU104gNL1MK60yn12Tqd-38" style="edgeStyle=orthogonalEdgeStyle;rounded=0;orthogonalLoop=1;jettySize=auto;html=1;entryX=0;entryY=0.5;entryDx=0;entryDy=0;" edge="1" parent="1" source="QU104gNL1MK60yn12Tqd-39" target="QU104gNL1MK60yn12Tqd-40">
          <mxGeometry relative="1" as="geometry" />
        </mxCell>
        <mxCell id="QU104gNL1MK60yn12Tqd-39" value="UserManager" style="rounded=0;whiteSpace=wrap;html=1;" vertex="1" parent="1">
          <mxGeometry x="1870" y="290" width="120" height="60" as="geometry" />
        </mxCell>
        <mxCell id="QU104gNL1MK60yn12Tqd-40" value="Block User" style="whiteSpace=wrap;html=1;rounded=0;" vertex="1" parent="1">
          <mxGeometry x="2110" y="190" width="120" height="60" as="geometry" />
        </mxCell>
        <mxCell id="QU104gNL1MK60yn12Tqd-42" value="Delete User" style="rounded=0;whiteSpace=wrap;html=1;" vertex="1" parent="1">
          <mxGeometry x="2110" y="290" width="120" height="60" as="geometry" />
        </mxCell>
        <mxCell id="QU104gNL1MK60yn12Tqd-43" value="Status:&amp;nbsp;&lt;br&gt;True = Block&lt;br&gt;False = Unblock" style="text;strokeColor=none;fillColor=none;align=left;verticalAlign=middle;spacingLeft=4;spacingRight=4;overflow=hidden;points=[[0,0.5],[1,0.5]];portConstraint=eastwest;rotatable=0;whiteSpace=wrap;html=1;" vertex="1" parent="1">
          <mxGeometry x="1540" y="215" width="120" height="60" as="geometry" />
        </mxCell>
        <mxCell id="QU104gNL1MK60yn12Tqd-53" style="edgeStyle=orthogonalEdgeStyle;rounded=0;orthogonalLoop=1;jettySize=auto;html=1;entryX=0;entryY=0.5;entryDx=0;entryDy=0;exitX=1;exitY=0.5;exitDx=0;exitDy=0;" edge="1" parent="1" source="QU104gNL1MK60yn12Tqd-56" target="QU104gNL1MK60yn12Tqd-51">
          <mxGeometry relative="1" as="geometry" />
        </mxCell>
        <mxCell id="QU104gNL1MK60yn12Tqd-54" style="edgeStyle=orthogonalEdgeStyle;rounded=0;orthogonalLoop=1;jettySize=auto;html=1;entryX=0;entryY=0.5;entryDx=0;entryDy=0;exitX=1;exitY=0.5;exitDx=0;exitDy=0;" edge="1" parent="1" source="QU104gNL1MK60yn12Tqd-56" target="QU104gNL1MK60yn12Tqd-48">
          <mxGeometry relative="1" as="geometry" />
        </mxCell>
        <mxCell id="QU104gNL1MK60yn12Tqd-55" style="edgeStyle=orthogonalEdgeStyle;rounded=0;orthogonalLoop=1;jettySize=auto;html=1;entryX=0;entryY=0.5;entryDx=0;entryDy=0;exitX=1;exitY=0.5;exitDx=0;exitDy=0;" edge="1" parent="1" source="QU104gNL1MK60yn12Tqd-56" target="QU104gNL1MK60yn12Tqd-52">
          <mxGeometry relative="1" as="geometry" />
        </mxCell>
        <mxCell id="QU104gNL1MK60yn12Tqd-57" value="" style="edgeStyle=orthogonalEdgeStyle;rounded=0;orthogonalLoop=1;jettySize=auto;html=1;" edge="1" parent="1" source="QU104gNL1MK60yn12Tqd-47" target="QU104gNL1MK60yn12Tqd-56">
          <mxGeometry relative="1" as="geometry" />
        </mxCell>
        <mxCell id="QU104gNL1MK60yn12Tqd-64" value="" style="edgeStyle=orthogonalEdgeStyle;rounded=0;orthogonalLoop=1;jettySize=auto;html=1;" edge="1" parent="1" source="QU104gNL1MK60yn12Tqd-47" target="QU104gNL1MK60yn12Tqd-63">
          <mxGeometry relative="1" as="geometry" />
        </mxCell>
        <mxCell id="QU104gNL1MK60yn12Tqd-47" value="POST" style="rounded=0;whiteSpace=wrap;html=1;" vertex="1" parent="1">
          <mxGeometry x="240" y="620" width="120" height="60" as="geometry" />
        </mxCell>
        <mxCell id="QU104gNL1MK60yn12Tqd-48" value="Private" style="rounded=0;whiteSpace=wrap;html=1;" vertex="1" parent="1">
          <mxGeometry x="680" y="495" width="120" height="60" as="geometry" />
        </mxCell>
        <mxCell id="QU104gNL1MK60yn12Tqd-51" value="Public" style="rounded=0;whiteSpace=wrap;html=1;" vertex="1" parent="1">
          <mxGeometry x="680" y="620" width="120" height="60" as="geometry" />
        </mxCell>
        <mxCell id="QU104gNL1MK60yn12Tqd-52" value="Friend" style="rounded=0;whiteSpace=wrap;html=1;" vertex="1" parent="1">
          <mxGeometry x="680" y="745" width="120" height="60" as="geometry" />
        </mxCell>
        <mxCell id="QU104gNL1MK60yn12Tqd-56" value="Status" style="rounded=0;whiteSpace=wrap;html=1;" vertex="1" parent="1">
          <mxGeometry x="440" y="620" width="120" height="60" as="geometry" />
        </mxCell>
        <mxCell id="QU104gNL1MK60yn12Tqd-63" value="CRUD for POST" style="rounded=0;whiteSpace=wrap;html=1;" vertex="1" parent="1">
          <mxGeometry x="240" y="760" width="120" height="60" as="geometry" />
        </mxCell>
        <mxCell id="QU104gNL1MK60yn12Tqd-69" value="" style="edgeStyle=orthogonalEdgeStyle;rounded=0;orthogonalLoop=1;jettySize=auto;html=1;" edge="1" parent="1" source="QU104gNL1MK60yn12Tqd-66" target="QU104gNL1MK60yn12Tqd-68">
          <mxGeometry relative="1" as="geometry" />
        </mxCell>
        <mxCell id="QU104gNL1MK60yn12Tqd-66" value="View POST" style="rounded=0;whiteSpace=wrap;html=1;" vertex="1" parent="1">
          <mxGeometry x="240" y="880" width="120" height="60" as="geometry" />
        </mxCell>
        <mxCell id="QU104gNL1MK60yn12Tqd-68" value="For Public/Private/Friend" style="rounded=0;whiteSpace=wrap;html=1;" vertex="1" parent="1">
          <mxGeometry x="240" y="1020" width="120" height="60" as="geometry" />
        </mxCell>
        <mxCell id="QU104gNL1MK60yn12Tqd-79" style="edgeStyle=orthogonalEdgeStyle;rounded=0;orthogonalLoop=1;jettySize=auto;html=1;entryX=0;entryY=0.5;entryDx=0;entryDy=0;" edge="1" parent="1" source="QU104gNL1MK60yn12Tqd-70" target="QU104gNL1MK60yn12Tqd-72">
          <mxGeometry relative="1" as="geometry" />
        </mxCell>
        <mxCell id="QU104gNL1MK60yn12Tqd-70" value="Add Friend Request" style="rounded=0;whiteSpace=wrap;html=1;" vertex="1" parent="1">
          <mxGeometry x="240" y="1160" width="120" height="60" as="geometry" />
        </mxCell>
        <mxCell id="QU104gNL1MK60yn12Tqd-77" style="edgeStyle=orthogonalEdgeStyle;rounded=0;orthogonalLoop=1;jettySize=auto;html=1;entryX=0;entryY=0.5;entryDx=0;entryDy=0;" edge="1" parent="1" source="QU104gNL1MK60yn12Tqd-72" target="QU104gNL1MK60yn12Tqd-75">
          <mxGeometry relative="1" as="geometry" />
        </mxCell>
        <mxCell id="QU104gNL1MK60yn12Tqd-72" value="Find Friend" style="rounded=0;whiteSpace=wrap;html=1;" vertex="1" parent="1">
          <mxGeometry x="480" y="1160" width="120" height="60" as="geometry" />
        </mxCell>
        <mxCell id="QU104gNL1MK60yn12Tqd-78" style="edgeStyle=orthogonalEdgeStyle;rounded=0;orthogonalLoop=1;jettySize=auto;html=1;entryX=0;entryY=0.5;entryDx=0;entryDy=0;" edge="1" parent="1" source="QU104gNL1MK60yn12Tqd-75" target="QU104gNL1MK60yn12Tqd-76">
          <mxGeometry relative="1" as="geometry" />
        </mxCell>
        <mxCell id="QU104gNL1MK60yn12Tqd-75" value="Friend Status&lt;br&gt;(Friend/Un-Friend)" style="rounded=0;whiteSpace=wrap;html=1;" vertex="1" parent="1">
          <mxGeometry x="720" y="1160" width="120" height="60" as="geometry" />
        </mxCell>
        <mxCell id="QU104gNL1MK60yn12Tqd-81" style="edgeStyle=orthogonalEdgeStyle;rounded=0;orthogonalLoop=1;jettySize=auto;html=1;entryX=0;entryY=0.5;entryDx=0;entryDy=0;" edge="1" parent="1" source="QU104gNL1MK60yn12Tqd-76" target="QU104gNL1MK60yn12Tqd-80">
          <mxGeometry relative="1" as="geometry" />
        </mxCell>
        <mxCell id="QU104gNL1MK60yn12Tqd-76" value="Choose ID" style="rounded=0;whiteSpace=wrap;html=1;" vertex="1" parent="1">
          <mxGeometry x="960" y="1160" width="120" height="60" as="geometry" />
        </mxCell>
        <mxCell id="QU104gNL1MK60yn12Tqd-80" value="Alert Confirm&lt;br&gt;(Yes/No)" style="rounded=0;whiteSpace=wrap;html=1;" vertex="1" parent="1">
          <mxGeometry x="1200" y="1160" width="120" height="60" as="geometry" />
        </mxCell>
      </root>
    </mxGraphModel>
  </diagram>
</mxfile>
>>>>>>> parent of f989045 (Update Facebook Fake Diagram.drawio)
